<?xml version="1.0" encoding="utf-8"?><svg viewBox="0 0 33 32" xmlns="http://www.w3.org/2000/svg" xmlns:xlink="http://www.w3.org/1999/xlink"><style>:root>svg{display:none}:root>svg:target{display:block}</style><svg fill="none" viewBox="0 0 24 24" id="apartment" xmlns="http://www.w3.org/2000/svg"><path d="M17 11V5c0-1.1-.9-2-2-2H9c-1.1 0-2 .9-2 2v2H5c-1.1 0-2 .9-2 2v10c0 1.1.9 2 2 2h6v-4h2v4h6c1.1 0 2-.9 2-2v-6c0-1.1-.9-2-2-2h-2zM7 19H5v-2h2v2zm0-4H5v-2h2v2zm0-4H5V9h2v2zm4 4H9v-2h2v2zm0-4H9V9h2v2zm0-4H9V5h2v2zm4 8h-2v-2h2v2zm0-4h-2V9h2v2zm0-4h-2V5h2v2zm4 12h-2v-2h2v2zm0-4h-2v-2h2v2z" fill="currentColor"/></svg><svg fill="none" viewBox="0 0 18 18" id="arrow" xmlns="http://www.w3.org/2000/svg"><path d="M14.624 7.12a.74.74 0 00-.4-.66.752.752 0 00-.828.087L9.386 9.88l-4.02-3.213a.75.75 0 00-1.054.112.743.743 0 00.112 1.086l4.49 3.592a.751.751 0 00.95 0l4.49-3.719a.744.744 0 00.27-.617z" fill="#fff"/></svg><svg fill="none" viewBox="0 0 28 28" id="arrow-left" xmlns="http://www.w3.org/2000/svg"><path d="M17.508 22.165a1.153 1.153 0 001.025-.621 1.17 1.17 0 00-.134-1.289l-5.183-6.24 4.998-6.25a1.166 1.166 0 00-.174-1.642 1.154 1.154 0 00-1.69.175l-5.587 6.985a1.168 1.168 0 000 1.478l5.785 6.984a1.157 1.157 0 00.96.42z" fill="currentColor"/></svg><svg fill="none" viewBox="0 0 24 24" id="arrow-right" xmlns="http://www.w3.org/2000/svg"><path d="M9.993 5.002a.988.988 0 00-.879.532 1.002 1.002 0 00.116 1.104l4.442 5.348-4.284 5.358a1 1 0 00.15 1.407.99.99 0 001.142.12.993.993 0 00.305-.27l4.79-5.986a1.001 1.001 0 000-1.267L10.815 5.36a.993.993 0 00-.823-.36z" fill="currentColor"/></svg><svg fill="none" viewBox="0 0 33 32" id="bath" xmlns="http://www.w3.org/2000/svg"><path d="M27.04 15.955H5.96c-.83 0-1.505.676-1.505 1.506s.676 1.506 1.506 1.506h21.078c.83 0 1.506-.676 1.506-1.506s-.676-1.506-1.506-1.506z" fill="#888B97"/><path d="M27.178 17.982a.499.499 0 00-.62.345l-.04.138H6.483l-.04-.138a.501.501 0 10-.965.275l1.383 4.842a3.528 3.528 0 003.378 2.549H22.76a3.527 3.527 0 003.378-2.549l1.383-4.842a.5.5 0 00-.343-.62zM10.24 23.985a1.51 1.51 0 01-1.448-1.092l-.651-2.282a.502.502 0 11.965-.275l.65 2.282c.063.214.26.364.484.364a.502.502 0 010 1.003z" fill="#888B97"/><path d="M11.203 25.041a.504.504 0 00-.673.225l-1.004 2.007a.503.503 0 00.899.45l1.003-2.008a.503.503 0 00-.225-.674zM23.474 27.274l-1.004-2.007a.502.502 0 10-.898.448l1.003 2.008a.502.502 0 00.899-.449zM24.615 4c-.512 0-.994.2-1.356.562l-1.593 1.593a.502.502 0 00.71.71l1.593-1.592a.908.908 0 01.651-.268c.504 0 .913.41.913.913v10.54a.502.502 0 101.005-.002V5.917A1.92 1.92 0 0024.615 4z" fill="#888B97"/><path d="M22.878 6.657l-1.004-1.004a.497.497 0 00-.437-.14l-2.509.411a.503.503 0 00-.279.844L21.66 9.87a.5.5 0 00.502.131.5.5 0 00.35-.382l.502-2.51a.502.502 0 00-.136-.452zM16.352 10.08a.502.502 0 00-.71 0l-1.003 1.004a.502.502 0 00.71.71l1.003-1.004a.502.502 0 000-.71zM18.36 12.088a.502.502 0 00-.71 0l-1.003 1.004a.502.502 0 00.71.71l1.003-1.004a.502.502 0 000-.71zM19.364 9.077a.502.502 0 00-.71 0L17.65 10.08a.502.502 0 00.71.71l1.004-1.004a.502.502 0 000-.71z" fill="#888B97"/></svg><svg fill="none" viewBox="0 0 32 32" id="bed" xmlns="http://www.w3.org/2000/svg"><path d="M23.8 14.77c2.271 0 4.2 1.892 4.2 4.307v3.692h-1.8V24H25v-1.23H7V24H5.8v-1.23H4v-3.693c0-2.33 1.863-4.308 4.2-4.308h15.6zM22.6 8c1.613 0 3 1.33 3 3.077v2.94a3.654 3.654 0 00-1.8-.478l-1.2-.001c0-1.054-.841-1.846-1.8-1.846h-3.6c-.461 0-.881.178-1.2.47a1.769 1.769 0 00-1.2-.47h-3.6c-.994 0-1.8.826-1.8 1.846H8.2c-.644 0-1.254.172-1.8.479v-2.94C6.4 9.422 7.694 8 9.4 8h13.2zm-7.8 4.923c.326 0 .6.307.6.616l-4.8-.001c0-.377.292-.615.6-.615h3.6zm6 .004c.34-.004.6.296.6.61h-4.8c0-.381.292-.614.6-.614l3.6.004z" fill="#888B97"/></svg><svg fill="none" viewBox="0 0 24 24" id="call" xmlns="http://www.w3.org/2000/svg"><path d="M8.384 2.48a2.4 2.4 0 012.793 1.134l.09.18.793 1.764a2.996 2.996 0 01-.53 3.262l-.159.158-1.253 1.168c-.225.213-.056 1.04.761 2.454.733 1.272 1.332 1.866 1.625 1.898h.052l.063-.012 2.46-.752a1.8 1.8 0 011.877.53l.11.137 1.628 2.256a2.4 2.4 0 01-.15 2.997l-.146.15-.651.618a4.2 4.2 0 01-4.458.845c-2.322-.936-4.432-3.074-6.348-6.393-1.92-3.328-2.718-6.228-2.362-8.712a4.2 4.2 0 012.715-3.347l.231-.077.86-.259z" fill="#fff"/></svg><svg fill="none" viewBox="0 0 32 32" id="car-garage" xmlns="http://www.w3.org/2000/svg"><path d="M27.384 10.629l-10.027-6.25a2.581 2.581 0 00-2.712.011L4.608 10.634c-.623.391-.795 1.191-.385 1.786.41.594 1.248.76 1.872.367l9.915-6.168 9.904 6.173c.228.14.482.207.733.207.444 0 .877-.207 1.136-.588.405-.598.226-1.395-.4-1.782z" fill="#888B97"/><path d="M24.21 18.753a.928.928 0 00-.902-.783h-.512l-.194-2.074C22.394 13.678 20.599 12 18.425 12h-4.849c-2.174 0-3.97 1.679-4.177 3.896l-.194 2.074h-.512a.93.93 0 00-.904.783l-.761 4.424a1.92 1.92 0 00.406 1.538c.335.41.83.654 1.348.673v.734c0 1.04.813 1.878 1.828 1.878h.577c1.014 0 1.84-.838 1.84-1.878V25.4h5.952v.72c0 1.04.819 1.88 1.833 1.88h.578c1.014 0 1.834-.84 1.834-1.88v-.732a1.823 1.823 0 001.344-.67 1.92 1.92 0 00.405-1.538l-.762-4.427zm-13.82 4.94c-.855 0-1.55-.71-1.55-1.59 0-.878.695-1.59 1.55-1.59.857 0 1.552.711 1.552 1.59 0 .88-.695 1.59-1.551 1.59zm.387-5.723l.18-1.913c.13-1.391 1.256-2.439 2.62-2.439h.279v.602a.92.92 0 00.912.937h2.464c.509 0 .92-.416.92-.937v-.601h.273c1.363 0 2.49 1.047 2.619 2.439l.18 1.913H10.777zm10.831 5.723c-.856 0-1.55-.71-1.55-1.59 0-.878.694-1.59 1.55-1.59.857 0 1.551.711 1.551 1.59 0 .88-.694 1.59-1.55 1.59z" fill="#888B97"/></svg><svg fill="none" viewBox="0 0 24 24" id="email" xmlns="http://www.w3.org/2000/svg"><path d="M19 4H5a3 3 0 00-3 3v10a3 3 0 003 3h14a3 3 0 003-3V7a3 3 0 00-3-3zm0 2l-6.5 4.47a1 1 0 01-1 0L5 6h14z" fill="#3B82F6"/></svg><svg fill="none" viewBox="0 0 32 32" id="facebook" xmlns="http://www.w3.org/2000/svg"><path d="M12.319 26v-9.385H9v-3.378h3.319V10.35c0-2.268 1.96-4.351 6.477-4.351 1.829 0 3.181.131 3.181.131l-.107 3.155s-1.379-.01-2.884-.01c-1.629 0-1.89.562-1.89 1.493v2.467H22l-.213 3.38h-4.69V26h-4.778z" fill="#3C4563"/></svg><svg fill="none" viewBox="0 0 16 16" id="fire" xmlns="http://www.w3.org/2000/svg"><path d="M13.033 7.331a5.43 5.43 0 00-1.295-1.8l-.455-.417a.126.126 0 00-.203.052l-.203.582c-.127.366-.36.74-.69 1.107a.098.098 0 01-.064.03.086.086 0 01-.067-.023.092.092 0 01-.031-.075c.058-.94-.223-2.001-.84-3.156-.508-.96-1.216-1.708-2.1-2.23l-.646-.38a.125.125 0 00-.187.115l.034.75c.023.512-.036.966-.177 1.342-.171.461-.418.89-.734 1.273a4.62 4.62 0 01-.742.72 5.51 5.51 0 00-1.567 1.9 5.434 5.434 0 00-.133 4.535 5.49 5.49 0 002.928 2.9A5.497 5.497 0 008 14.984c.742 0 1.46-.143 2.14-.426a5.447 5.447 0 001.747-1.167A5.408 5.408 0 0013.5 9.533c0-.763-.156-1.503-.467-2.202z" fill="currentColor"/></svg><svg fill="none" viewBox="0 0 24 24" id="house" xmlns="http://www.w3.org/2000/svg"><path d="M21 10.832V19.5a1.508 1.508 0 01-.792 1.326c-.216.117-.46.177-.706.174h-4.505a.75.75 0 01-.75-.75v-4.5a.75.75 0 00-.75-.75h-3a.75.75 0 00-.75.75v4.5a.75.75 0 01-.75.75H4.5a1.49 1.49 0 01-1.124-.507A1.544 1.544 0 013 19.466v-8.634a1.503 1.503 0 01.491-1.11l7.5-6.819a1.494 1.494 0 012.018 0l7.5 6.819a1.504 1.504 0 01.491 1.11z" fill="currentColor"/></svg><svg fill="none" viewBox="0 0 32 32" id="instagram" xmlns="http://www.w3.org/2000/svg"><path d="M15.997 12.665A3.342 3.342 0 0012.663 16a3.342 3.342 0 003.334 3.335A3.342 3.342 0 0019.332 16a3.342 3.342 0 00-3.335-3.335zM26 16c0-1.38.012-2.75-.065-4.128-.078-1.6-.443-3.022-1.614-4.193-1.173-1.173-2.591-1.536-4.192-1.613C18.747 5.988 17.378 6 16 6c-1.381 0-2.75-.013-4.128.065-1.601.077-3.022.443-4.193 1.613-1.173 1.174-1.536 2.592-1.613 4.193C5.988 13.253 6 14.622 6 16c0 1.378-.013 2.75.065 4.128.077 1.6.443 3.022 1.613 4.193 1.174 1.173 2.592 1.536 4.193 1.613 1.381.078 2.75.065 4.128.065 1.38 0 2.75.013 4.128-.065 1.6-.077 3.021-.443 4.192-1.613 1.174-1.174 1.536-2.592 1.614-4.193.08-1.379.065-2.747.065-4.128zm-10.002 5.131A5.124 5.124 0 0110.867 16a5.124 5.124 0 015.13-5.131c2.84 0 5.131 2.292 5.131 5.131a5.124 5.124 0 01-5.13 5.131zm5.341-9.274a1.197 1.197 0 01-1.198-1.198c0-.663.535-1.198 1.198-1.198a1.197 1.197 0 01.848 2.046 1.197 1.197 0 01-.848.35z" fill="#3C4563"/></svg><svg fill="none" viewBox="0 0 24 24" id="location" xmlns="http://www.w3.org/2000/svg"><path d="M12 1c2.387 0 4.676.993 6.364 2.762C20.052 5.53 21 7.928 21 10.429c0 4.505-2.902 8.652-8.598 12.449a.726.726 0 01-.804 0C5.902 19.08 3 14.934 3 10.428c0-2.5.948-4.898 2.636-6.666C7.324 1.993 9.613 1 12 1zm0 6.286c-.796 0-1.559.33-2.121.92A3.22 3.22 0 009 10.43c0 .833.316 1.633.879 2.222.562.59 1.325.92 2.121.92s1.559-.33 2.121-.92A3.22 3.22 0 0015 10.429a3.22 3.22 0 00-.879-2.223A2.933 2.933 0 0012 7.286z" fill="#F59E0B"/></svg><svg fill="none" viewBox="0 0 33 32" id="stairs-with-handrail" xmlns="http://www.w3.org/2000/svg"><path d="M27.288 9h-4.356c-.669 0-1.211.537-1.211 1.2v3.114h-3.145c-.67 0-1.212.536-1.212 1.199v3.114H14.22c-.67 0-1.211.537-1.211 1.2v3.264H9.712c-.322 0-.63.126-.857.35a1.195 1.195 0 00-.355.85V25.8c0 .663.543 1.2 1.212 1.2h17.576c.67 0 1.212-.537 1.212-1.2V10.2c0-.663-.542-1.2-1.212-1.2z" fill="#888B97"/><path d="M21.264 5.245a.848.848 0 00-1.178-.015C14.743 10.305 9.66 15.262 4.744 20.055a.803.803 0 00-.244.575v5.558c0 .448.373.812.833.812.46 0 .833-.364.833-.812v-5.222c4.836-4.716 9.836-9.588 15.082-14.572a.798.798 0 00.016-1.149z" fill="#888B97"/></svg><svg fill="none" viewBox="0 0 24 24" id="star" xmlns="http://www.w3.org/2000/svg"><path d="M23.605 8.709a1.168 1.168 0 00-1.013-.789l-6.651-.528-2.878-6.371a1.164 1.164 0 00-2.126-.002L8.06 7.392l-6.651.528A1.167 1.167 0 00.686 9.92L5.6 14.71l-1.738 7.527a1.167 1.167 0 001.785 1.234L12 19.236l6.352 4.235a1.168 1.168 0 001.77-1.29l-2.134-7.467 5.293-4.763c.346-.312.473-.8.324-1.242z" fill="#F59E0B"/></svg><svg fill="none" viewBox="0 0 24 24" id="time" xmlns="http://www.w3.org/2000/svg"><path d="M11.99 2C6.47 2 2 6.48 2 12s4.47 10 9.99 10C17.52 22 22 17.52 22 12S17.52 2 11.99 2zM16 16a.994.994 0 01-1.41 0l-3.29-3.29A1 1 0 0111 12V8c0-.55.45-1 1-1s1 .45 1 1v3.59l3 3c.39.39.39 1.02 0 1.41z" fill="#888B97"/></svg><svg fill="none" viewBox="0 0 32 32" id="twitter" xmlns="http://www.w3.org/2000/svg"><path d="M28 8.376a9.669 9.669 0 01-2.832.78 5.011 5.011 0 002.163-2.78c-.964.588-2.02 1-3.12 1.219a4.908 4.908 0 00-1.636-1.181A4.8 4.8 0 0020.616 6C17.891 6 15.7 8.266 15.7 11.047c0 .39.046.781.12 1.157-4.08-.219-7.72-2.219-10.14-5.28a5.109 5.109 0 00-.67 2.546c0 1.752.869 3.296 2.193 4.205a4.868 4.868 0 01-2.224-.642v.062c0 2.452 1.69 4.485 3.943 4.952-.423.113-.858.17-1.295.172-.32 0-.623-.033-.93-.077.624 2 2.438 3.453 4.598 3.5a9.701 9.701 0 01-6.106 2.157c-.412 0-.793-.015-1.188-.062A13.674 13.674 0 0011.554 26c9.045 0 13.994-7.686 13.994-14.358 0-.219 0-.438-.014-.657A10.748 10.748 0 0028 8.375z" fill="#3C4563"/></svg><svg fill="none" viewBox="0 0 24 24" id="villa" xmlns="http://www.w3.org/2000/svg"><path d="M7 21H4c-.55 0-1-.45-1-1V8.69c0-.42.25-.79.64-.94l11-4.23a1 1 0 011.36.94V10H8c-.55 0-1 .45-1 1v10zm10-9h-7c-.55 0-1 .45-1 1v7c0 .55.45 1 1 1h4v-4c0-.55.45-1 1-1s1 .45 1 1v4h4c.55 0 1-.45 1-1v-8c0-1.1-.9-2-2-2s-2 .9-2 2z" fill="currentColor"/></svg><svg fill="none" viewBox="0 0 16 16" id="wallet" xmlns="http://www.w3.org/2000/svg"><path d="M12.8 4.8h-10v-.4l8.8-.704V4.4h1.2V3.2c0-.88-.713-1.498-1.583-1.374L3.184 2.974C2.313 3.098 1.6 3.92 1.6 4.8v8a1.6 1.6 0 001.6 1.6h9.6a1.6 1.6 0 001.6-1.6V6.4a1.6 1.6 0 00-1.6-1.6zm-1.2 5.605a1.203 1.203 0 01-1.2-1.201 1.199 1.199 0 012.05-.848 1.2 1.2 0 01-.85 2.049z" fill="currentColor"/></svg></svg>